<mxfile host="app.diagrams.net" agent="Mozilla/5.0 (Macintosh; Intel Mac OS X 10_15_7) AppleWebKit/537.36 (KHTML, like Gecko) Chrome/126.0.0.0 Safari/537.36" version="24.7.4">
  <diagram id="C5RBs43oDa-KdzZeNtuy" name="Page-1">
    <mxGraphModel dx="2501" dy="1930" grid="1" gridSize="10" guides="1" tooltips="1" connect="1" arrows="1" fold="1" page="1" pageScale="1" pageWidth="827" pageHeight="1169" math="0" shadow="0">
      <root>
        <mxCell id="WIyWlLk6GJQsqaUBKTNV-0" />
        <mxCell id="WIyWlLk6GJQsqaUBKTNV-1" parent="WIyWlLk6GJQsqaUBKTNV-0" />
        <mxCell id="bLoDom8n8q_n5jIfxJ7S-91" value="项目配置修改" style="rounded=0;whiteSpace=wrap;html=1;align=center;verticalAlign=top;fontFamily=Helvetica;fontSize=12;fontColor=default;fillColor=none;gradientColor=none;dashed=1;" parent="WIyWlLk6GJQsqaUBKTNV-1" vertex="1">
          <mxGeometry x="-470" y="325" width="1090" height="260" as="geometry" />
        </mxCell>
        <mxCell id="bLoDom8n8q_n5jIfxJ7S-105" value="" style="edgeStyle=none;rounded=0;orthogonalLoop=1;jettySize=auto;html=1;fontFamily=Helvetica;fontSize=12;fontColor=default;entryX=0.5;entryY=0;entryDx=0;entryDy=0;" parent="WIyWlLk6GJQsqaUBKTNV-1" source="bLoDom8n8q_n5jIfxJ7S-104" target="bLoDom8n8q_n5jIfxJ7S-90" edge="1">
          <mxGeometry relative="1" as="geometry" />
        </mxCell>
        <mxCell id="bLoDom8n8q_n5jIfxJ7S-104" value="准备" style="rounded=0;whiteSpace=wrap;html=1;align=center;verticalAlign=top;fontFamily=Helvetica;fontSize=12;fontColor=default;fillColor=none;gradientColor=none;dashed=1;" parent="WIyWlLk6GJQsqaUBKTNV-1" vertex="1">
          <mxGeometry x="-470" y="-440" width="1090" height="260" as="geometry" />
        </mxCell>
        <mxCell id="bLoDom8n8q_n5jIfxJ7S-93" value="部署应用" style="rounded=0;whiteSpace=wrap;html=1;align=center;verticalAlign=top;fontFamily=Helvetica;fontSize=12;fontColor=default;fillColor=none;gradientColor=none;dashed=1;" parent="WIyWlLk6GJQsqaUBKTNV-1" vertex="1">
          <mxGeometry x="-470" y="1160" width="1090" height="390" as="geometry" />
        </mxCell>
        <mxCell id="bLoDom8n8q_n5jIfxJ7S-108" style="edgeStyle=none;rounded=0;orthogonalLoop=1;jettySize=auto;html=1;exitX=0.5;exitY=1;exitDx=0;exitDy=0;fontFamily=Helvetica;fontSize=12;fontColor=default;" parent="WIyWlLk6GJQsqaUBKTNV-1" source="bLoDom8n8q_n5jIfxJ7S-92" target="bLoDom8n8q_n5jIfxJ7S-93" edge="1">
          <mxGeometry relative="1" as="geometry" />
        </mxCell>
        <mxCell id="bLoDom8n8q_n5jIfxJ7S-92" value="k8s环境准备" style="rounded=0;whiteSpace=wrap;html=1;align=center;verticalAlign=top;fontFamily=Helvetica;fontSize=12;fontColor=default;fillColor=none;gradientColor=none;dashed=1;" parent="WIyWlLk6GJQsqaUBKTNV-1" vertex="1">
          <mxGeometry x="-470" y="730" width="1090" height="330" as="geometry" />
        </mxCell>
        <mxCell id="bLoDom8n8q_n5jIfxJ7S-106" style="edgeStyle=none;rounded=0;orthogonalLoop=1;jettySize=auto;html=1;exitX=0.5;exitY=1;exitDx=0;exitDy=0;entryX=0.5;entryY=0;entryDx=0;entryDy=0;fontFamily=Helvetica;fontSize=12;fontColor=default;" parent="WIyWlLk6GJQsqaUBKTNV-1" source="bLoDom8n8q_n5jIfxJ7S-90" target="bLoDom8n8q_n5jIfxJ7S-91" edge="1">
          <mxGeometry relative="1" as="geometry" />
        </mxCell>
        <mxCell id="bLoDom8n8q_n5jIfxJ7S-90" value="配置中台" style="rounded=0;whiteSpace=wrap;html=1;align=center;verticalAlign=top;fontFamily=Helvetica;fontSize=12;fontColor=default;fillColor=none;gradientColor=none;dashed=1;" parent="WIyWlLk6GJQsqaUBKTNV-1" vertex="1">
          <mxGeometry x="-470" y="-60" width="1090" height="280" as="geometry" />
        </mxCell>
        <mxCell id="Xh9s7hepuEPgODtvEkjb-1" value="" style="edgeStyle=orthogonalEdgeStyle;rounded=0;orthogonalLoop=1;jettySize=auto;html=1;" parent="WIyWlLk6GJQsqaUBKTNV-1" source="bLoDom8n8q_n5jIfxJ7S-40" target="Xh9s7hepuEPgODtvEkjb-0" edge="1">
          <mxGeometry relative="1" as="geometry" />
        </mxCell>
        <mxCell id="bLoDom8n8q_n5jIfxJ7S-40" value="k8s中部署日志相关的所有服务" style="rounded=0;whiteSpace=wrap;html=1;" parent="WIyWlLk6GJQsqaUBKTNV-1" vertex="1">
          <mxGeometry x="-273" y="1230" width="120" height="60" as="geometry" />
        </mxCell>
        <mxCell id="bLoDom8n8q_n5jIfxJ7S-41" value="fluentd&lt;div&gt;es&lt;/div&gt;&lt;div&gt;kibana&lt;/div&gt;" style="shape=note2;boundedLbl=1;whiteSpace=wrap;html=1;size=25;verticalAlign=top;align=left;fillColor=#fff2cc;strokeColor=#d6b656;" parent="WIyWlLk6GJQsqaUBKTNV-1" vertex="1">
          <mxGeometry x="-150" y="1319" width="70" height="90" as="geometry" />
        </mxCell>
        <mxCell id="bLoDom8n8q_n5jIfxJ7S-42" value="" style="endArrow=none;dashed=1;html=1;dashPattern=1 3;strokeWidth=2;rounded=0;entryX=0.75;entryY=1;entryDx=0;entryDy=0;exitX=0;exitY=0;exitDx=0;exitDy=0;exitPerimeter=0;" parent="WIyWlLk6GJQsqaUBKTNV-1" source="bLoDom8n8q_n5jIfxJ7S-41" target="bLoDom8n8q_n5jIfxJ7S-40" edge="1">
          <mxGeometry width="50" height="50" relative="1" as="geometry">
            <mxPoint x="-43" y="1075" as="sourcePoint" />
            <mxPoint x="-143" y="995" as="targetPoint" />
          </mxGeometry>
        </mxCell>
        <mxCell id="bLoDom8n8q_n5jIfxJ7S-64" value="外部准备&lt;div&gt;1. Rancher&lt;/div&gt;&lt;div&gt;2. 中台&lt;/div&gt;&lt;div&gt;3. MQ&lt;/div&gt;&lt;div&gt;&lt;span style=&quot;white-space: pre;&quot;&gt;&#x9;&lt;/span&gt;地址+端口号&lt;br&gt;&lt;/div&gt;&lt;div&gt;&lt;span style=&quot;white-space: pre;&quot;&gt;&#x9;&lt;/span&gt;用户名&lt;br&gt;&lt;/div&gt;&lt;div&gt;&lt;span style=&quot;white-space: pre;&quot;&gt;&#x9;&lt;/span&gt;密码&lt;/div&gt;&lt;div&gt;4. 域名（SSL证书）&lt;/div&gt;&lt;div&gt;5. 配置中心数据导入&lt;/div&gt;&lt;div&gt;6. 存储类&lt;/div&gt;&lt;div data-sider-select-id=&quot;3804fd7e-b8ad-4e94-b46b-e27dd143f4b2&quot;&gt;7. app shell安装好&lt;/div&gt;&lt;div data-sider-select-id=&quot;08f825d4-d1de-4067-8cb7-2164a5672277&quot;&gt;8. 数据分析节点，/data/ms-elasticsearch目录要给zytec用户赋予权限&lt;/div&gt;" style="text;html=1;align=left;verticalAlign=top;whiteSpace=wrap;rounded=0;strokeColor=default;" parent="WIyWlLk6GJQsqaUBKTNV-1" vertex="1">
          <mxGeometry x="-35" y="-410" width="220" height="210" as="geometry" />
        </mxCell>
        <mxCell id="bLoDom8n8q_n5jIfxJ7S-95" value="" style="edgeStyle=none;rounded=0;orthogonalLoop=1;jettySize=auto;html=1;fontFamily=Helvetica;fontSize=12;fontColor=default;" parent="WIyWlLk6GJQsqaUBKTNV-1" source="bLoDom8n8q_n5jIfxJ7S-66" target="bLoDom8n8q_n5jIfxJ7S-68" edge="1">
          <mxGeometry relative="1" as="geometry" />
        </mxCell>
        <mxCell id="bLoDom8n8q_n5jIfxJ7S-66" value="配置中心修改配置" style="rounded=0;whiteSpace=wrap;html=1;" parent="WIyWlLk6GJQsqaUBKTNV-1" vertex="1">
          <mxGeometry x="-230" y="-30" width="120" height="60" as="geometry" />
        </mxCell>
        <mxCell id="bLoDom8n8q_n5jIfxJ7S-67" value="中台创建应用配置应用权限" style="rounded=0;whiteSpace=wrap;html=1;" parent="WIyWlLk6GJQsqaUBKTNV-1" vertex="1">
          <mxGeometry x="130" y="-30" width="120" height="60" as="geometry" />
        </mxCell>
        <mxCell id="bLoDom8n8q_n5jIfxJ7S-96" value="" style="edgeStyle=none;rounded=0;orthogonalLoop=1;jettySize=auto;html=1;fontFamily=Helvetica;fontSize=12;fontColor=default;" parent="WIyWlLk6GJQsqaUBKTNV-1" source="bLoDom8n8q_n5jIfxJ7S-68" target="bLoDom8n8q_n5jIfxJ7S-67" edge="1">
          <mxGeometry relative="1" as="geometry" />
        </mxCell>
        <mxCell id="bLoDom8n8q_n5jIfxJ7S-68" value="中台创建缺少的服务" style="rounded=0;whiteSpace=wrap;html=1;" parent="WIyWlLk6GJQsqaUBKTNV-1" vertex="1">
          <mxGeometry x="-50" y="-30" width="120" height="60" as="geometry" />
        </mxCell>
        <mxCell id="bLoDom8n8q_n5jIfxJ7S-70" value="项目新增配置文件并写入配置中心的地址以及API KEY" style="rounded=0;whiteSpace=wrap;html=1;" parent="WIyWlLk6GJQsqaUBKTNV-1" vertex="1">
          <mxGeometry x="15" y="425" width="120" height="60" as="geometry" />
        </mxCell>
        <mxCell id="Ls25J3W9IPNRQxTHLXcJ-0" value="" style="edgeStyle=orthogonalEdgeStyle;rounded=0;orthogonalLoop=1;jettySize=auto;html=1;" parent="WIyWlLk6GJQsqaUBKTNV-1" source="bLoDom8n8q_n5jIfxJ7S-71" target="kxMak26ckprh1PsMX2pA-3" edge="1">
          <mxGeometry relative="1" as="geometry" />
        </mxCell>
        <mxCell id="bLoDom8n8q_n5jIfxJ7S-71" value="k8s中创建所有的持久卷以及Secret" style="rounded=0;whiteSpace=wrap;html=1;" parent="WIyWlLk6GJQsqaUBKTNV-1" vertex="1">
          <mxGeometry x="-450" y="780" width="120" height="60" as="geometry" />
        </mxCell>
        <mxCell id="bLoDom8n8q_n5jIfxJ7S-100" value="" style="edgeStyle=none;rounded=0;orthogonalLoop=1;jettySize=auto;html=1;fontFamily=Helvetica;fontSize=12;fontColor=default;" parent="WIyWlLk6GJQsqaUBKTNV-1" source="bLoDom8n8q_n5jIfxJ7S-72" target="bLoDom8n8q_n5jIfxJ7S-40" edge="1">
          <mxGeometry relative="1" as="geometry" />
        </mxCell>
        <mxCell id="bLoDom8n8q_n5jIfxJ7S-72" value="部署基础设施" style="rounded=0;whiteSpace=wrap;html=1;" parent="WIyWlLk6GJQsqaUBKTNV-1" vertex="1">
          <mxGeometry x="-450" y="1230" width="120" height="60" as="geometry" />
        </mxCell>
        <mxCell id="bLoDom8n8q_n5jIfxJ7S-73" value="mysql&lt;div&gt;&lt;div&gt;&lt;span style=&quot;text-align: center;&quot;&gt;配置mysql&lt;/span&gt;&lt;br&gt;&lt;/div&gt;&lt;div&gt;&lt;span style=&quot;text-align: center;&quot;&gt;&amp;nbsp; &amp;nbsp;&amp;nbsp;&lt;/span&gt;&lt;span style=&quot;background-color: initial;&quot;&gt;1. 创建多个（6个）库&lt;/span&gt;&lt;/div&gt;&lt;div&gt;&amp;nbsp; &amp;nbsp; 2. 创建lowcode用户密码&lt;/div&gt;&lt;div&gt;&amp;nbsp; &amp;nbsp; 3. 给lowcde用户赋予数据库权限&lt;/div&gt;&lt;div&gt;minio&lt;/div&gt;&lt;div&gt;&amp;nbsp; &amp;nbsp; 1. 创建Secret&lt;/div&gt;&lt;div&gt;mongodb&lt;/div&gt;&lt;div&gt;redis&lt;/div&gt;&lt;div&gt;&lt;br&gt;&lt;/div&gt;&lt;/div&gt;" style="shape=note2;boundedLbl=1;whiteSpace=wrap;html=1;size=25;verticalAlign=top;align=left;fillColor=#fff2cc;strokeColor=#d6b656;" parent="WIyWlLk6GJQsqaUBKTNV-1" vertex="1">
          <mxGeometry x="-413" y="1319" width="160" height="180" as="geometry" />
        </mxCell>
        <mxCell id="bLoDom8n8q_n5jIfxJ7S-74" value="" style="endArrow=none;dashed=1;html=1;dashPattern=1 3;strokeWidth=2;rounded=0;entryX=0.5;entryY=1;entryDx=0;entryDy=0;exitX=0;exitY=0;exitDx=67.5;exitDy=0;exitPerimeter=0;" parent="WIyWlLk6GJQsqaUBKTNV-1" source="bLoDom8n8q_n5jIfxJ7S-73" target="bLoDom8n8q_n5jIfxJ7S-72" edge="1">
          <mxGeometry width="50" height="50" relative="1" as="geometry">
            <mxPoint x="-183" y="1320" as="sourcePoint" />
            <mxPoint x="-233" y="1280" as="targetPoint" />
          </mxGeometry>
        </mxCell>
        <mxCell id="bLoDom8n8q_n5jIfxJ7S-99" value="" style="edgeStyle=none;rounded=0;orthogonalLoop=1;jettySize=auto;html=1;fontFamily=Helvetica;fontSize=12;fontColor=default;" parent="WIyWlLk6GJQsqaUBKTNV-1" source="bLoDom8n8q_n5jIfxJ7S-77" target="bLoDom8n8q_n5jIfxJ7S-80" edge="1">
          <mxGeometry relative="1" as="geometry" />
        </mxCell>
        <mxCell id="bLoDom8n8q_n5jIfxJ7S-77" value="k8s中部署pull-package服务" style="rounded=0;whiteSpace=wrap;html=1;" parent="WIyWlLk6GJQsqaUBKTNV-1" vertex="1">
          <mxGeometry x="-80" y="780" width="120" height="60" as="geometry" />
        </mxCell>
        <mxCell id="bLoDom8n8q_n5jIfxJ7S-80" value="k8s的pull-package服务中拉取所有的业务服务包" style="rounded=0;whiteSpace=wrap;html=1;" parent="WIyWlLk6GJQsqaUBKTNV-1" vertex="1">
          <mxGeometry x="100" y="780" width="120" height="60" as="geometry" />
        </mxCell>
        <mxCell id="bLoDom8n8q_n5jIfxJ7S-83" value="&lt;div data-sider-select-id=&quot;583c161d-79b5-42da-bc4f-167546ff7348&quot;&gt;应用凭证&lt;/div&gt;应用配置&lt;div&gt;访问授权&lt;/div&gt;&lt;div&gt;服务授权&lt;/div&gt;&lt;div&gt;功能授权&lt;/div&gt;" style="shape=note2;boundedLbl=1;whiteSpace=wrap;html=1;size=25;verticalAlign=top;align=left;fillColor=#fff2cc;strokeColor=#d6b656;" parent="WIyWlLk6GJQsqaUBKTNV-1" vertex="1">
          <mxGeometry x="150" y="60" width="110" height="120" as="geometry" />
        </mxCell>
        <mxCell id="bLoDom8n8q_n5jIfxJ7S-84" value="" style="endArrow=none;dashed=1;html=1;dashPattern=1 3;strokeWidth=2;rounded=0;entryX=0.5;entryY=1;entryDx=0;entryDy=0;exitX=0;exitY=0;exitDx=42.5;exitDy=0;exitPerimeter=0;" parent="WIyWlLk6GJQsqaUBKTNV-1" source="bLoDom8n8q_n5jIfxJ7S-83" target="bLoDom8n8q_n5jIfxJ7S-67" edge="1">
          <mxGeometry width="50" height="50" relative="1" as="geometry">
            <mxPoint x="-137" y="340" as="sourcePoint" />
            <mxPoint x="-160" y="300" as="targetPoint" />
          </mxGeometry>
        </mxCell>
        <mxCell id="bLoDom8n8q_n5jIfxJ7S-88" value="messaging&lt;div&gt;tracking&lt;/div&gt;&lt;div&gt;searching&lt;/div&gt;&lt;div&gt;dictionary&lt;/div&gt;&lt;div&gt;lowcode-cook&lt;/div&gt;&lt;div&gt;lowcode-deploy-gateway&lt;/div&gt;&lt;div&gt;lowcode-guardian&lt;/div&gt;&lt;div&gt;&lt;br&gt;&lt;/div&gt;&lt;div&gt;所有前端的包&lt;/div&gt;" style="shape=note2;boundedLbl=1;whiteSpace=wrap;html=1;size=25;verticalAlign=top;align=left;fillColor=#fff2cc;strokeColor=#d6b656;" parent="WIyWlLk6GJQsqaUBKTNV-1" vertex="1">
          <mxGeometry x="210" y="865" width="150" height="180" as="geometry" />
        </mxCell>
        <mxCell id="bLoDom8n8q_n5jIfxJ7S-89" value="" style="endArrow=none;dashed=1;html=1;dashPattern=1 3;strokeWidth=2;rounded=0;entryX=0.75;entryY=1;entryDx=0;entryDy=0;exitX=0;exitY=0;exitDx=0;exitDy=0;exitPerimeter=0;" parent="WIyWlLk6GJQsqaUBKTNV-1" source="bLoDom8n8q_n5jIfxJ7S-88" target="bLoDom8n8q_n5jIfxJ7S-80" edge="1">
          <mxGeometry width="50" height="50" relative="1" as="geometry">
            <mxPoint x="-167" y="890" as="sourcePoint" />
            <mxPoint x="-190" y="850" as="targetPoint" />
          </mxGeometry>
        </mxCell>
        <mxCell id="bLoDom8n8q_n5jIfxJ7S-107" style="edgeStyle=none;rounded=0;orthogonalLoop=1;jettySize=auto;html=1;exitX=0.5;exitY=1;exitDx=0;exitDy=0;entryX=0.5;entryY=0;entryDx=0;entryDy=0;fontFamily=Helvetica;fontSize=12;fontColor=default;" parent="WIyWlLk6GJQsqaUBKTNV-1" source="bLoDom8n8q_n5jIfxJ7S-91" target="bLoDom8n8q_n5jIfxJ7S-92" edge="1">
          <mxGeometry relative="1" as="geometry" />
        </mxCell>
        <mxCell id="kxMak26ckprh1PsMX2pA-0" value="service&lt;div&gt;datasource&lt;br&gt;&lt;div&gt;nosql&lt;/div&gt;&lt;div&gt;openapi&lt;/div&gt;&lt;div&gt;rabbit&lt;/div&gt;&lt;div&gt;mq&lt;/div&gt;&lt;div&gt;redis&lt;/div&gt;&lt;/div&gt;&lt;div&gt;minio&lt;/div&gt;" style="shape=note2;boundedLbl=1;whiteSpace=wrap;html=1;size=25;verticalAlign=top;align=left;fillColor=#fff2cc;strokeColor=#d6b656;" parent="WIyWlLk6GJQsqaUBKTNV-1" vertex="1">
          <mxGeometry x="-225" y="60" width="110" height="150" as="geometry" />
        </mxCell>
        <mxCell id="kxMak26ckprh1PsMX2pA-1" value="&lt;div data-sider-select-id=&quot;fc6db637-6039-4288-ac06-9142e8a226ce&quot;&gt;配置中心服务&lt;/div&gt;微服务统一网关&lt;div&gt;异步任务&lt;/div&gt;&lt;div data-sider-select-id=&quot;96672959-7900-45d7-9b96-6296e8f2cf8e&quot;&gt;应用管理&lt;/div&gt;&lt;div data-sider-select-id=&quot;a86db7cb-f3ab-49d9-87f5-85e2f91b5586&quot;&gt;配置中心&lt;/div&gt;&lt;div data-sider-select-id=&quot;a86db7cb-f3ab-49d9-87f5-85e2f91b5586&quot;&gt;机构管理服务&lt;/div&gt;&lt;div data-sider-select-id=&quot;59089e71-1f18-4ccd-a7cc-cfcd65c23086&quot;&gt;草稿服务&lt;/div&gt;&lt;div data-sider-select-id=&quot;59089e71-1f18-4ccd-a7cc-cfcd65c23086&quot;&gt;身份标签&lt;/div&gt;" style="shape=note2;boundedLbl=1;whiteSpace=wrap;html=1;size=25;verticalAlign=top;align=left;fillColor=#fff2cc;strokeColor=#d6b656;" parent="WIyWlLk6GJQsqaUBKTNV-1" vertex="1">
          <mxGeometry x="-45" y="60" width="110" height="150" as="geometry" />
        </mxCell>
        <mxCell id="kxMak26ckprh1PsMX2pA-2" value="registry-secret&lt;div&gt;boot-pvc&lt;/div&gt;&lt;div&gt;pull-pakcage-pvc&lt;/div&gt;&lt;div&gt;tool-pvc&lt;/div&gt;&lt;div&gt;nginx-pvc&lt;/div&gt;&lt;div&gt;fluentd-pvc&lt;/div&gt;&lt;div&gt;&lt;br&gt;&lt;/div&gt;" style="shape=note2;boundedLbl=1;whiteSpace=wrap;html=1;size=25;verticalAlign=top;align=left;fillColor=#fff2cc;strokeColor=#d6b656;" parent="WIyWlLk6GJQsqaUBKTNV-1" vertex="1">
          <mxGeometry x="-438" y="880" width="110" height="150" as="geometry" />
        </mxCell>
        <mxCell id="Ls25J3W9IPNRQxTHLXcJ-7" value="" style="edgeStyle=orthogonalEdgeStyle;rounded=0;orthogonalLoop=1;jettySize=auto;html=1;" parent="WIyWlLk6GJQsqaUBKTNV-1" source="kxMak26ckprh1PsMX2pA-3" target="bLoDom8n8q_n5jIfxJ7S-77" edge="1">
          <mxGeometry relative="1" as="geometry" />
        </mxCell>
        <mxCell id="kxMak26ckprh1PsMX2pA-3" value="部署filebrowser" style="rounded=0;whiteSpace=wrap;html=1;" parent="WIyWlLk6GJQsqaUBKTNV-1" vertex="1">
          <mxGeometry x="-273" y="780" width="120" height="60" as="geometry" />
        </mxCell>
        <mxCell id="Ls25J3W9IPNRQxTHLXcJ-2" value="从远程下载所有卷中相应的包" style="shape=note2;boundedLbl=1;whiteSpace=wrap;html=1;size=25;verticalAlign=top;align=left;fillColor=#fff2cc;strokeColor=#d6b656;" parent="WIyWlLk6GJQsqaUBKTNV-1" vertex="1">
          <mxGeometry x="-273" y="880" width="110" height="80" as="geometry" />
        </mxCell>
        <mxCell id="Ls25J3W9IPNRQxTHLXcJ-3" value="" style="endArrow=none;dashed=1;html=1;dashPattern=1 3;strokeWidth=2;rounded=0;entryX=0.5;entryY=1;entryDx=0;entryDy=0;exitX=0.5;exitY=0;exitDx=0;exitDy=0;exitPerimeter=0;" parent="WIyWlLk6GJQsqaUBKTNV-1" source="kxMak26ckprh1PsMX2pA-2" target="bLoDom8n8q_n5jIfxJ7S-71" edge="1">
          <mxGeometry width="50" height="50" relative="1" as="geometry">
            <mxPoint x="3" y="890" as="sourcePoint" />
            <mxPoint x="-20" y="850" as="targetPoint" />
          </mxGeometry>
        </mxCell>
        <mxCell id="Ls25J3W9IPNRQxTHLXcJ-4" value="" style="endArrow=none;dashed=1;html=1;dashPattern=1 3;strokeWidth=2;rounded=0;entryX=0.5;entryY=1;entryDx=0;entryDy=0;exitX=0.5;exitY=0;exitDx=0;exitDy=0;exitPerimeter=0;" parent="WIyWlLk6GJQsqaUBKTNV-1" source="Ls25J3W9IPNRQxTHLXcJ-2" target="kxMak26ckprh1PsMX2pA-3" edge="1">
          <mxGeometry width="50" height="50" relative="1" as="geometry">
            <mxPoint x="-380" y="890" as="sourcePoint" />
            <mxPoint x="-380" y="850" as="targetPoint" />
          </mxGeometry>
        </mxCell>
        <mxCell id="Ls25J3W9IPNRQxTHLXcJ-5" value="" style="endArrow=none;dashed=1;html=1;dashPattern=1 3;strokeWidth=2;rounded=0;entryX=0.5;entryY=1;entryDx=0;entryDy=0;exitX=0.5;exitY=0;exitDx=0;exitDy=0;exitPerimeter=0;" parent="WIyWlLk6GJQsqaUBKTNV-1" source="kxMak26ckprh1PsMX2pA-1" target="bLoDom8n8q_n5jIfxJ7S-68" edge="1">
          <mxGeometry width="50" height="50" relative="1" as="geometry">
            <mxPoint x="213" y="80" as="sourcePoint" />
            <mxPoint x="200" y="40" as="targetPoint" />
          </mxGeometry>
        </mxCell>
        <mxCell id="Ls25J3W9IPNRQxTHLXcJ-6" value="" style="endArrow=none;dashed=1;html=1;dashPattern=1 3;strokeWidth=2;rounded=0;entryX=0.5;entryY=1;entryDx=0;entryDy=0;exitX=0.5;exitY=0;exitDx=0;exitDy=0;exitPerimeter=0;" parent="WIyWlLk6GJQsqaUBKTNV-1" source="kxMak26ckprh1PsMX2pA-0" target="bLoDom8n8q_n5jIfxJ7S-66" edge="1">
          <mxGeometry width="50" height="50" relative="1" as="geometry">
            <mxPoint x="20" y="70" as="sourcePoint" />
            <mxPoint x="20" y="40" as="targetPoint" />
          </mxGeometry>
        </mxCell>
        <mxCell id="Xh9s7hepuEPgODtvEkjb-5" value="" style="edgeStyle=orthogonalEdgeStyle;rounded=0;orthogonalLoop=1;jettySize=auto;html=1;" parent="WIyWlLk6GJQsqaUBKTNV-1" source="Xh9s7hepuEPgODtvEkjb-0" target="Xh9s7hepuEPgODtvEkjb-3" edge="1">
          <mxGeometry relative="1" as="geometry" />
        </mxCell>
        <mxCell id="Xh9s7hepuEPgODtvEkjb-0" value="修改编排文件" style="rounded=0;whiteSpace=wrap;html=1;" parent="WIyWlLk6GJQsqaUBKTNV-1" vertex="1">
          <mxGeometry x="-90" y="1230" width="120" height="60" as="geometry" />
        </mxCell>
        <mxCell id="Xh9s7hepuEPgODtvEkjb-2" value="" style="edgeStyle=none;rounded=0;orthogonalLoop=1;jettySize=auto;html=1;fontFamily=Helvetica;fontSize=12;fontColor=default;" parent="WIyWlLk6GJQsqaUBKTNV-1" source="Xh9s7hepuEPgODtvEkjb-3" target="Xh9s7hepuEPgODtvEkjb-4" edge="1">
          <mxGeometry relative="1" as="geometry" />
        </mxCell>
        <mxCell id="Xh9s7hepuEPgODtvEkjb-3" value="部署所有的业务服务" style="rounded=0;whiteSpace=wrap;html=1;" parent="WIyWlLk6GJQsqaUBKTNV-1" vertex="1">
          <mxGeometry x="90" y="1230" width="120" height="60" as="geometry" />
        </mxCell>
        <mxCell id="Xh9s7hepuEPgODtvEkjb-4" value="配置服务的ingress" style="rounded=0;whiteSpace=wrap;html=1;" parent="WIyWlLk6GJQsqaUBKTNV-1" vertex="1">
          <mxGeometry x="280" y="1230" width="120" height="60" as="geometry" />
        </mxCell>
      </root>
    </mxGraphModel>
  </diagram>
</mxfile>
